<svg viewBox="0 0 1728 689" fill="none" xmlns="http://www.w3.org/2000/svg">
<path opacity="0.09" d="M124.812 54.375L113.25 79.1875H136.312L124.812 54.375ZM60.25 114.062L105.312 30.0625H144.25L189.312 114.062H152.438L145.812 99.6875H103.75L97.125 114.062H60.25ZM256.438 54.375L244.875 79.1875H267.938L256.438 54.375ZM191.875 114.062L236.938 30.0625H275.875L320.938 114.062H284.062L277.438 99.6875H235.375L228.75 114.062H191.875ZM323.5 30H404.438C421.75 29.8125 436.438 44.375 436.188 61.75C436.188 68.0625 434.5 73.8125 431.125 78.9375C427.812 84 423.375 87.875 417.875 90.4375L436.188 114H401.312L385.5 93.5H356.25V114H323.5V30ZM396.188 54.5625H356.25V68.875H396.188C398.188 68.875 399.875 68.1875 401.25 66.8125C402.688 65.375 403.375 63.6875 403.375 61.75C403.375 57.75 400.188 54.5625 396.188 54.5625ZM513.312 114.062H480.562V56.6875H441.625V30.0625H552.25V56.6875H513.312V114.062ZM563.25 29.9375H596V113.938H563.25V29.9375ZM613.375 114.062V30.0625H715.812V56.6875H646.125V66.9375H707.625V91.5H646.125V114.062H613.375ZM725.25 29.9375H758V113.938H725.25V29.9375ZM848.625 79.125H882.188C880.125 107.5 855.25 116 825 116C793.5 115.938 767.5 106.812 767.625 75V68.875C767.5 37.125 793.5 28 825 27.875C855.25 27.9375 880.125 36.4375 882.188 64.75H848.625C845.562 56.5 836.25 54.5625 825 54.5625C811.625 54.75 800.25 57.125 800.438 70.9375V73C800.25 86.6875 811.625 89.1875 825 89.375C836.25 89.375 845.625 87.375 848.625 79.125ZM892 29.9375H924.75V113.938H892V29.9375ZM991.812 54.375L980.25 79.1875H1003.31L991.812 54.375ZM927.25 114.062L972.312 30.0625H1011.25L1056.31 114.062H1019.44L1012.81 99.6875H970.75L964.125 114.062H927.25ZM1058.88 29.9375H1091.62V87.3125H1157.19V113.938H1058.88V29.9375ZM1168.38 29.9375H1201.12V113.938H1168.38V29.9375ZM1270.06 56.6875H1214.75V30.0625H1323.31V56.6875L1266 87.375H1323.31V114.062H1214.75V87.375L1270.06 56.6875ZM1338.62 114.062V30.0625H1436.94V51.5625H1371.38V62.3125H1436.94V81.75H1371.38V92.5H1436.94V114.062H1338.62ZM1566.56 54.375L1555 79.1875H1578.06L1566.56 54.375ZM1502 114.062L1547.06 30.0625H1586L1631.06 114.062H1594.19L1587.56 99.6875H1545.5L1538.88 114.062H1502ZM1633.62 29.9375H1666.38V113.938H1633.62V29.9375Z" fill="#575757"/>
<path opacity="0.09" d="M124.812 145.375L113.25 170.188H136.312L124.812 145.375ZM60.25 205.062L105.312 121.062H144.25L189.312 205.062H152.438L145.812 190.688H103.75L97.125 205.062H60.25ZM256.438 145.375L244.875 170.188H267.938L256.438 145.375ZM191.875 205.062L236.938 121.062H275.875L320.938 205.062H284.062L277.438 190.688H235.375L228.75 205.062H191.875ZM323.5 121H404.438C421.75 120.812 436.438 135.375 436.188 152.75C436.188 159.062 434.5 164.812 431.125 169.938C427.812 175 423.375 178.875 417.875 181.438L436.188 205H401.312L385.5 184.5H356.25V205H323.5V121ZM396.188 145.562H356.25V159.875H396.188C398.188 159.875 399.875 159.188 401.25 157.812C402.688 156.375 403.375 154.688 403.375 152.75C403.375 148.75 400.188 145.562 396.188 145.562ZM513.312 205.062H480.562V147.688H441.625V121.062H552.25V147.688H513.312V205.062ZM563.25 120.938H596V204.938H563.25V120.938ZM613.375 205.062V121.062H715.812V147.688H646.125V157.938H707.625V182.5H646.125V205.062H613.375ZM725.25 120.938H758V204.938H725.25V120.938ZM848.625 170.125H882.188C880.125 198.5 855.25 207 825 207C793.5 206.938 767.5 197.812 767.625 166V159.875C767.5 128.125 793.5 119 825 118.875C855.25 118.938 880.125 127.438 882.188 155.75H848.625C845.562 147.5 836.25 145.562 825 145.562C811.625 145.75 800.25 148.125 800.438 161.938V164C800.25 177.688 811.625 180.188 825 180.375C836.25 180.375 845.625 178.375 848.625 170.125ZM892 120.938H924.75V204.938H892V120.938ZM991.812 145.375L980.25 170.188H1003.31L991.812 145.375ZM927.25 205.062L972.312 121.062H1011.25L1056.31 205.062H1019.44L1012.81 190.688H970.75L964.125 205.062H927.25ZM1058.88 120.938H1091.62V178.312H1157.19V204.938H1058.88V120.938ZM1168.38 120.938H1201.12V204.938H1168.38V120.938ZM1270.06 147.688H1214.75V121.062H1323.31V147.688L1266 178.375H1323.31V205.062H1214.75V178.375L1270.06 147.688ZM1338.62 205.062V121.062H1436.94V142.562H1371.38V153.312H1436.94V172.75H1371.38V183.5H1436.94V205.062H1338.62ZM1566.56 145.375L1555 170.188H1578.06L1566.56 145.375ZM1502 205.062L1547.06 121.062H1586L1631.06 205.062H1594.19L1587.56 190.688H1545.5L1538.88 205.062H1502ZM1633.62 120.938H1666.38V204.938H1633.62V120.938Z" fill="#A0A0A0"/>
<g filter="url(#filter0_d_58627_31756)">
<path d="M124.812 234.375L113.25 259.188H136.312L124.812 234.375ZM60.25 294.062L105.312 210.062H144.25L189.312 294.062H152.438L145.812 279.688H103.75L97.125 294.062H60.25ZM256.438 234.375L244.875 259.188H267.938L256.438 234.375ZM191.875 294.062L236.938 210.062H275.875L320.938 294.062H284.062L277.438 279.688H235.375L228.75 294.062H191.875ZM323.5 210H404.438C421.75 209.812 436.438 224.375 436.188 241.75C436.188 248.062 434.5 253.812 431.125 258.938C427.812 264 423.375 267.875 417.875 270.438L436.188 294H401.312L385.5 273.5H356.25V294H323.5V210ZM396.188 234.562H356.25V248.875H396.188C398.188 248.875 399.875 248.188 401.25 246.812C402.688 245.375 403.375 243.688 403.375 241.75C403.375 237.75 400.188 234.562 396.188 234.562ZM513.312 294.062H480.562V236.688H441.625V210.062H552.25V236.688H513.312V294.062ZM563.25 209.938H596V293.938H563.25V209.938ZM613.375 294.062V210.062H715.812V236.688H646.125V246.938H707.625V271.5H646.125V294.062H613.375ZM725.25 209.938H758V293.938H725.25V209.938ZM848.625 259.125H882.188C880.125 287.5 855.25 296 825 296C793.5 295.938 767.5 286.812 767.625 255V248.875C767.5 217.125 793.5 208 825 207.875C855.25 207.938 880.125 216.438 882.188 244.75H848.625C845.562 236.5 836.25 234.562 825 234.562C811.625 234.75 800.25 237.125 800.438 250.938V253C800.25 266.688 811.625 269.188 825 269.375C836.25 269.375 845.625 267.375 848.625 259.125ZM892 209.938H924.75V293.938H892V209.938ZM991.812 234.375L980.25 259.188H1003.31L991.812 234.375ZM927.25 294.062L972.312 210.062H1011.25L1056.31 294.062H1019.44L1012.81 279.688H970.75L964.125 294.062H927.25ZM1058.88 209.938H1091.62V267.312H1157.19V293.938H1058.88V209.938ZM1168.38 209.938H1201.12V293.938H1168.38V209.938ZM1270.06 236.688H1214.75V210.062H1323.31V236.688L1266 267.375H1323.31V294.062H1214.75V267.375L1270.06 236.688ZM1338.62 294.062V210.062H1436.94V231.562H1371.38V242.312H1436.94V261.75H1371.38V272.5H1436.94V294.062H1338.62ZM1566.56 234.375L1555 259.188H1578.06L1566.56 234.375ZM1502 294.062L1547.06 210.062H1586L1631.06 294.062H1594.19L1587.56 279.688H1545.5L1538.88 294.062H1502ZM1633.62 209.938H1666.38V293.938H1633.62V209.938Z" fill="white"/>
</g>
<path opacity="0.09" d="M124.812 355.625L113.25 330.812H136.312L124.812 355.625ZM60.25 295.938L105.312 379.938H144.25L189.312 295.938H152.438L145.812 310.312H103.75L97.125 295.938H60.25ZM256.438 355.625L244.875 330.812H267.938L256.438 355.625ZM191.875 295.938L236.938 379.938H275.875L320.938 295.938H284.062L277.438 310.312H235.375L228.75 295.938H191.875ZM323.5 380H404.438C421.75 380.188 436.438 365.625 436.188 348.25C436.188 341.938 434.5 336.188 431.125 331.062C427.812 326 423.375 322.125 417.875 319.562L436.188 296H401.312L385.5 316.5H356.25V296H323.5V380ZM396.188 355.438H356.25V341.125H396.188C398.188 341.125 399.875 341.812 401.25 343.188C402.688 344.625 403.375 346.312 403.375 348.25C403.375 352.25 400.188 355.438 396.188 355.438ZM513.312 295.938H480.562V353.312H441.625V379.938H552.25V353.312H513.312V295.938ZM563.25 380.062H596V296.062H563.25V380.062ZM613.375 295.938V379.938H715.812V353.312H646.125V343.062H707.625V318.5H646.125V295.938H613.375ZM725.25 380.062H758V296.062H725.25V380.062ZM848.625 330.875H882.188C880.125 302.5 855.25 294 825 294C793.5 294.062 767.5 303.188 767.625 335V341.125C767.5 372.875 793.5 382 825 382.125C855.25 382.062 880.125 373.562 882.188 345.25H848.625C845.562 353.5 836.25 355.438 825 355.438C811.625 355.25 800.25 352.875 800.438 339.062V337C800.25 323.312 811.625 320.812 825 320.625C836.25 320.625 845.625 322.625 848.625 330.875ZM892 380.062H924.75V296.062H892V380.062ZM991.812 355.625L980.25 330.812H1003.31L991.812 355.625ZM927.25 295.938L972.312 379.938H1011.25L1056.31 295.938H1019.44L1012.81 310.312H970.75L964.125 295.938H927.25ZM1058.88 380.062H1091.62V322.688H1157.19V296.062H1058.88V380.062ZM1168.38 380.062H1201.12V296.062H1168.38V380.062ZM1270.06 353.312H1214.75V379.938H1323.31V353.312L1266 322.625H1323.31V295.938H1214.75V322.625L1270.06 353.312ZM1338.62 295.938V379.938H1436.94V358.438H1371.38V347.688H1436.94V328.25H1371.38V317.5H1436.94V295.938H1338.62ZM1566.56 355.625L1555 330.812H1578.06L1566.56 355.625ZM1502 295.938L1547.06 379.938H1586L1631.06 295.938H1594.19L1587.56 310.312H1545.5L1538.88 295.938H1502ZM1633.62 380.062H1666.38V296.062H1633.62V380.062Z" fill="#A0A0A0"/>
<path opacity="0.09" d="M124.812 454.625L113.25 429.812H136.312L124.812 454.625ZM60.25 394.938L105.312 478.938H144.25L189.312 394.938H152.438L145.812 409.312H103.75L97.125 394.938H60.25ZM256.438 454.625L244.875 429.812H267.938L256.438 454.625ZM191.875 394.938L236.938 478.938H275.875L320.938 394.938H284.062L277.438 409.312H235.375L228.75 394.938H191.875ZM323.5 479H404.438C421.75 479.188 436.438 464.625 436.188 447.25C436.188 440.938 434.5 435.188 431.125 430.062C427.812 425 423.375 421.125 417.875 418.562L436.188 395H401.312L385.5 415.5H356.25V395H323.5V479ZM396.188 454.438H356.25V440.125H396.188C398.188 440.125 399.875 440.812 401.25 442.188C402.688 443.625 403.375 445.312 403.375 447.25C403.375 451.25 400.188 454.438 396.188 454.438ZM513.312 394.938H480.562V452.312H441.625V478.938H552.25V452.312H513.312V394.938ZM563.25 479.062H596V395.062H563.25V479.062ZM613.375 394.938V478.938H715.812V452.312H646.125V442.062H707.625V417.5H646.125V394.938H613.375ZM725.25 479.062H758V395.062H725.25V479.062ZM848.625 429.875H882.188C880.125 401.5 855.25 393 825 393C793.5 393.062 767.5 402.188 767.625 434V440.125C767.5 471.875 793.5 481 825 481.125C855.25 481.062 880.125 472.562 882.188 444.25H848.625C845.562 452.5 836.25 454.438 825 454.438C811.625 454.25 800.25 451.875 800.438 438.062V436C800.25 422.312 811.625 419.812 825 419.625C836.25 419.625 845.625 421.625 848.625 429.875ZM892 479.062H924.75V395.062H892V479.062ZM991.812 454.625L980.25 429.812H1003.31L991.812 454.625ZM927.25 394.938L972.312 478.938H1011.25L1056.31 394.938H1019.44L1012.81 409.312H970.75L964.125 394.938H927.25ZM1058.88 479.062H1091.62V421.688H1157.19V395.062H1058.88V479.062ZM1168.38 479.062H1201.12V395.062H1168.38V479.062ZM1270.06 452.312H1214.75V478.938H1323.31V452.312L1266 421.625H1323.31V394.938H1214.75V421.625L1270.06 452.312ZM1338.62 394.938V478.938H1436.94V457.438H1371.38V446.688H1436.94V427.25H1371.38V416.5H1436.94V394.938H1338.62ZM1566.56 454.625L1555 429.812H1578.06L1566.56 454.625ZM1502 394.938L1547.06 478.938H1586L1631.06 394.938H1594.19L1587.56 409.312H1545.5L1538.88 394.938H1502ZM1633.62 479.062H1666.38V395.062H1633.62V479.062Z" fill="#575757"/>
<path opacity="0.09" d="M124.812 634.625L113.25 609.812H136.312L124.812 634.625ZM60.25 574.938L105.312 658.938H144.25L189.312 574.938H152.438L145.812 589.312H103.75L97.125 574.938H60.25ZM256.438 634.625L244.875 609.812H267.938L256.438 634.625ZM191.875 574.938L236.938 658.938H275.875L320.938 574.938H284.062L277.438 589.312H235.375L228.75 574.938H191.875ZM323.5 659H404.438C421.75 659.188 436.438 644.625 436.188 627.25C436.188 620.938 434.5 615.188 431.125 610.062C427.812 605 423.375 601.125 417.875 598.562L436.188 575H401.312L385.5 595.5H356.25V575H323.5V659ZM396.188 634.438H356.25V620.125H396.188C398.188 620.125 399.875 620.812 401.25 622.188C402.688 623.625 403.375 625.312 403.375 627.25C403.375 631.25 400.188 634.438 396.188 634.438ZM513.312 574.938H480.562V632.312H441.625V658.938H552.25V632.312H513.312V574.938ZM563.25 659.062H596V575.062H563.25V659.062ZM613.375 574.938V658.938H715.812V632.312H646.125V622.062H707.625V597.5H646.125V574.938H613.375ZM725.25 659.062H758V575.062H725.25V659.062ZM848.625 609.875H882.188C880.125 581.5 855.25 573 825 573C793.5 573.062 767.5 582.188 767.625 614V620.125C767.5 651.875 793.5 661 825 661.125C855.25 661.062 880.125 652.562 882.188 624.25H848.625C845.562 632.5 836.25 634.438 825 634.438C811.625 634.25 800.25 631.875 800.438 618.062V616C800.25 602.312 811.625 599.812 825 599.625C836.25 599.625 845.625 601.625 848.625 609.875ZM892 659.062H924.75V575.062H892V659.062ZM991.812 634.625L980.25 609.812H1003.31L991.812 634.625ZM927.25 574.938L972.312 658.938H1011.25L1056.31 574.938H1019.44L1012.81 589.312H970.75L964.125 574.938H927.25ZM1058.88 659.062H1091.62V601.688H1157.19V575.062H1058.88V659.062ZM1168.38 659.062H1201.12V575.062H1168.38V659.062ZM1270.06 632.312H1214.75V658.938H1323.31V632.312L1266 601.625H1323.31V574.938H1214.75V601.625L1270.06 632.312ZM1338.62 574.938V658.938H1436.94V637.438H1371.38V626.688H1436.94V607.25H1371.38V596.5H1436.94V574.938H1338.62ZM1566.56 634.625L1555 609.812H1578.06L1566.56 634.625ZM1502 574.938L1547.06 658.938H1586L1631.06 574.938H1594.19L1587.56 589.312H1545.5L1538.88 574.938H1502ZM1633.62 659.062H1666.38V575.062H1633.62V659.062Z" fill="#242222"/>
<defs>
<filter id="filter0_d_58627_31756" x="-39.75" y="112.875" width="1806.12" height="288.125" filterUnits="userSpaceOnUse" color-interpolation-filters="sRGB">
<feFlood flood-opacity="0" result="BackgroundImageFix"/>
<feColorMatrix in="SourceAlpha" type="matrix" values="0 0 0 0 0 0 0 0 0 0 0 0 0 0 0 0 0 0 127 0" result="hardAlpha"/>
<feOffset dy="5"/>
<feGaussianBlur stdDeviation="50"/>
<feComposite in2="hardAlpha" operator="out"/>
<feColorMatrix type="matrix" values="0 0 0 0 1 0 0 0 0 1 0 0 0 0 1 0 0 0 0.81 0"/>
<feBlend mode="normal" in2="BackgroundImageFix" result="effect1_dropShadow_58627_31756"/>
<feBlend mode="normal" in="SourceGraphic" in2="effect1_dropShadow_58627_31756" result="shape"/>
</filter>
</defs>
</svg>
